<svg xmlns="http://www.w3.org/2000/svg" viewBox="0 0 245 240">
<path fill="#5865F2" d="M104.4 104.9c-5.7 0-10.2 5-10.2 11.1s4.6 11.1 10.2 11.1c5.7 0 10.2-5 10.2-11.1s-4.6-11.1-10.2-11.1zm36.2 0c-5.7 0-10.2 5-10.2 11.1s4.6 11.1 10.2 11.1c5.7 0 10.2-5 10.2-11.1s-4.5-11.1-10.2-11.1z"/>
<path fill="#5865F2" d="M189.5 20h-134C36 20 20 36.2 20 56.3V184c0 20.2 16 36.3 35.5 36.3h114.5l-5.4-18.8 12.9 12 12.2 11.4 21.6 19V56.3c0-20.2-16-36.3-35.8-36.3zm-39.6 135s-3.7-4.4-6.8-8.3c13.5-3.8 18.6-12.3 18.6-12.3-4.2 2.7-8.2 4.6-11.8 5.9-5.1 2.2-10 3.6-14.8 4.4-9.8 1.8-18.8 1.3-26.5-.1-5.8-1.1-10.8-2.7-15-4.4-2.3-.9-4.8-2-7.3-3.4-.3-.2-.6-.3-.9-.5-.2-.1-.3-.2-.4-.2-.9-.5-1.3-.8-1.3-.8s5 8.3 18.3 12.2c-3.1 3.9-6.9 8.6-6.9 8.6-22.7-.7-31.4-15.6-31.4-15.6 0-33 14.8-59.7 14.8-59.7 14.8-11.1 28.8-10.8 28.8-10.8l1 1.2c-18.5 5.3-27.1 13.3-27.1 13.3s2.3-1.3 6.1-3.1c11.1-4.9 19.9-6.2 23.5-6.6.6-.1 1.1-.2 1.7-.2 6.1-.8 13-1 20.2-.2 9.5 1.1 19.7 3.9 30.1 9.6 0 0-8.1-7.7-25.6-13l1.4-1.6s14-.3 28.8 10.8c0 0 14.8 26.7 14.8 59.7 0 .1-8.8 14.9-31.5 15.6z"/>
</svg>
